<?xml version="1.0" encoding="UTF-8"?>
<svg width="80px" height="80px" viewBox="0 0 80 80" version="1.1" xmlns="http://www.w3.org/2000/svg" xmlns:xlink="http://www.w3.org/1999/xlink">
    <!-- Generator: Sketch 63.1 (92452) - https://sketch.com -->
    <title>头像备份</title>
    <desc>Created with Sketch.</desc>
    <defs>
        <path d="M0,40 C0,62.0915556 17.9084444,80 40,80 C62.0915556,80 80,62.0915556 80,40 C80,17.9084444 62.0915556,0 40,0 C17.9084444,0 0,17.9084444 0,40" id="path-1"></path>
    </defs>
    <g id="基本信息" stroke="none" stroke-width="1" fill="none" fill-rule="evenodd">
        <g id="1-基本信息" transform="translate(-292.000000, -136.000000)">
            <g id="头像备份" transform="translate(292.000000, 136.000000)">
                <g id="Group-15">
                    <g id="Group-8">
                        <mask id="mask-2" fill="white">
                            <use xlink:href="#path-1"></use>
                        </mask>
                        <use id="Mask" fill="#E9EDFA" xlink:href="#path-1"></use>
                        <g id="Group-4" mask="url(#mask-2)">
                            <g transform="translate(12.000000, 11.804878)">
                                <polygon id="Fill-3" fill="#FBCBC3" points="21.2592593 59.9614815 34.7407407 59.9614815 34.7407407 42.7571667 21.2592593 42.7571667"></polygon>
                                <path d="M17.3496037,26.267863 C17.3496037,29.3172704 15.7423259,31.7852889 13.7614556,31.7852889 C11.7805852,31.7852889 10.2771407,28.0002333 10.2771407,24.9508259 C10.2771407,21.9020667 11.7805852,20.7409741 13.7614556,20.7409741 C15.7525667,20.7409741 17.3496037,23.2191037 17.3496037,26.267863" id="Fill-5" fill="#FBCDC9"></path>
                                <path d="M38.6397537,26.267863 C38.6397537,29.3172704 40.2474204,31.7852889 42.2284204,31.7852889 C44.2087722,31.7852889 45.7127352,28.0002333 45.7127352,24.9508259 C45.7127352,21.9020667 44.2087722,20.7409741 42.2284204,20.7409741 C40.2474204,20.7409741 38.6397537,23.2191037 38.6397537,26.267863" id="Fill-6" fill="#FBCDC9"></path>
                                <path d="M55.9169593,76.5333333 L0.0831444444,76.5333333 C2.05325556,58.4059259 3.32894074,57.5765556 5.27831111,56.2386481 C10.3495519,52.6192593 21.2492,50.3481481 21.2593111,50.3481481 L21.2593111,48.1808704 C21.2694222,50.3997407 24.8164778,51.4367778 28.2800519,51.3543333 C31.5465889,51.2813519 34.7306815,50.2028333 34.7509037,48.1808704 L34.7509037,50.3481481 C34.7615333,50.3481481 48.7407926,53.2622222 52.4012741,57.7527222 C54.1127741,59.847537 55.9169593,76.5333333 55.9169593,76.5333333" id="Fill-7" fill="#3D5DC7"></path>
                                <path d="M55.9169593,76.5333333 L28.2800519,76.5333333 L28.2800519,51.3543333 C31.5465889,51.2813519 34.7306815,50.2028333 34.7509037,48.1808704 L34.7509037,50.3481481 C34.7615333,50.3481481 48.7407926,53.2622222 52.4012741,57.7527222 C54.1127741,59.847537 55.9169593,76.5333333 55.9169593,76.5333333" id="Fill-8" fill="#3D5DC7"></path>
                                <path d="M27.16,57.1820667 C25.3035741,61.5170111 24.6711111,68.859363 24.4949444,76.5333074 L32.0650556,76.5333074 C31.7956852,69.139363 30.6548148,62.0978815 28.9645741,57.1820667 L27.16,57.1820667 Z" id="Fill-9" fill="#BFCCFA"></path>
                                <polygon id="Fill-10" fill="#BFCCFA" points="33.0606241 51.7583759 28.964587 57.1719685 27.160013 57.1719685 22.9080315 51.7583759 28.0000519 51.3593241"></polygon>
                                <path d="M21.2491352,47.8385963 C23.0118389,50.1613 24.3081352,51.1775963 27.9898759,51.2711889 C25.178987,53.1999481 23.6756722,54.1955037 22.0370241,57.1198185 C20.3568944,51.4267444 21.2491352,47.8385963 21.2491352,47.8385963 M34.7407278,47.8385963 C32.9776352,50.1613 31.6813389,51.1775963 27.999987,51.2711889 C30.8103574,53.1999481 32.3141907,54.1955037 33.9528389,57.1198185 C35.63245,51.4267444 34.7407278,47.8385963 34.7407278,47.8385963" id="Fill-11" fill="#FFFFFF"></path>
                                <path d="M35.3731907,35.18655 C33.6935796,33.5585315 31.7850426,32.2831056 27.8961537,32.6977907 C24.0072648,32.2831056 22.0886167,33.5585315 20.4192463,35.18655 C19.890487,35.7050685 18.1172833,36.9391426 20.0768944,36.9081611 C22.1615981,36.8767907 23.976413,35.9334759 28.0414685,35.9334759 C30.8417278,35.9021056 33.7968944,36.8767907 35.7155426,36.9081611 C37.6756722,36.9289019 35.9023389,35.7050685 35.3731907,35.18655" id="Fill-12" fill="#544942"></path>
                                <path d="M43.2861722,23.250487 C43.2861722,33.2061722 36.4415981,45.6192463 27.999987,45.6192463 C19.5583759,45.6192463 12.7138019,33.1955426 12.7138019,23.250487 C12.7138019,13.2948019 16.9657833,5.23702407 27.999987,5.23702407 C39.0341907,5.23702407 43.2861722,13.2948019 43.2861722,23.250487" id="Fill-13" fill="#FFDCD7"></path>
                                <path d="M31.4949315,14.62195 C35.9955426,15.2341907 37.7378944,14.9127093 38.1212093,15.7319685 C38.4949315,16.5512278 39.8220796,17.5882648 40.205913,18.5214685 C40.5897463,19.4548019 40.9113574,23.1158019 40.9113574,23.1158019 L41.875413,23.1158019 L41.8961537,20.7824685 C43.2131907,20.5333204 43.7317093,21.0310981 43.7317093,21.0310981 C43.7317093,21.0310981 44.4057833,17.9822093 44.2918389,14.1034315 C44.1778944,10.2251722 42.2283944,5.16456111 37.5824685,2.59283889 C33.5275241,0.34195 30.8103574,0.34195 27.999987,0.34195 C25.1896167,0.34195 22.4208574,0.383561111 18.365913,2.63432037 C13.719987,5.21628333 11.8220796,10.2251722 11.7182463,14.1034315 C11.6044315,17.9822093 12.2783759,21.0310981 12.2783759,21.0310981 C12.2783759,21.0310981 12.8075241,20.5333204 14.1139315,20.7824685 L14.1346722,23.1158019 L15.0992463,23.1158019 C15.0992463,23.1158019 15.4309685,19.4548019 15.8148019,18.5214685 C16.1986352,17.5882648 16.696413,15.9288759 17.0696167,15.1096167 C17.4428204,14.2903574 17.3496167,9.81048704 22.2654315,9.15676481 C22.2654315,8.23419074 25.4281352,13.8026907 31.4949315,14.62195" id="Fill-14" fill="#485377"></path>
                            </g>
                        </g>
                    </g>
                </g>
            </g>
        </g>
    </g>
</svg>